{"title":"Asterix_en_de_Olympische_spelen_(2008)_(Nl-gesproken)-2lions+WaR","uid":4947480,"size":590910348,"categoryP":"video","categoryS":"movies","magnet":"?xt=urn:btih:032ca22ca3b2f2453b027598aca6c7e9667b4e3c&amp;dn=Asterix_en_de_Olympische_spelen_%282008%29_%28Nl-gesproken%29-2lions%2BWaR&amp;tr=udp%3A%2F%2Ftracker.openbittorrent.com%3A80&amp;tr=udp%3A%2F%2Fopen.demonii.com%3A1337&amp;tr=udp%3A%2F%2Ftracker.coppersurfer.tk%3A6969&amp;tr=udp%3A%2F%2Fexodus.desync.com%3A6969","seeders":5,"leechers":0,"uploader":"bitpirate","files":-1,"time":1244730114,"description":"WaRlOrD and 2lions presents: Asterix en de olympische spelen.\n-------------------------------------------------------------\n\nSpanje / Duitsland / Frankrijk\nAvontuur / Komedie\n113 minuten\n\ngeregisseerd door FrÃƒÂ©dÃƒÂ©ric Forestier en Thomas Langmann\nmet Clovis Cornillac, GÃƒÂ©rard Depardieu en Alain Delon\n\nWanneer de GalliÃƒÂ«rs horen dat de Romeinen een legioen sturen om mee te doen aan de Olympische Spelen, sturen zij hun eigen kampioenen Asterix en Obelix. De Griekse scheidsrechters verbieden echter het gebruik van hun magische toverdrankje. De GalliÃƒÂ«rs zullen nu met eigen krachten moeten proberen te winnen.\n &lt;a href=&quot;\nhttp://www.moviemeter.nl/film/40465&quot; rel=&quot;nofollow&quot; target=&quot;_NEW&quot;&gt;\nhttp://www.moviemeter.nl/film/40465&lt;/a&gt;\n\nFormat                           : AVI\nFormat/Info                      : Audio Video Interleave\nFile size                        : 563 MiB\nDuration                         : 1h 45mn\nOverall bit rate                 : 743 Kbps\nWriting application              : Nandub v1.0rc2\nWriting library                  : VirtualDub build 28292/release\n\nVideo\nFormat                           : MPEG-4 Visual\nFormat profile                   : Streaming Video@L1\nFormat settings, BVOP            : Yes\nFormat settings, QPel            : No\nFormat settings, GMC             : No warppoints\nFormat settings, Matrix          : Default (H.263)\nMuxing mode                      : Packed bitstream\nCodec ID                         : XVID\nCodec ID/Hint                    : XviD\nDuration                         : 1h 45mn\nBit rate                         : 622 Kbps\nWidth                            : 608 pixels\nHeight                           : 272 pixels\nDisplay aspect ratio             : 2.25\nFrame rate                       : 25.000 fps\nResolution                       : 24 bits\nColorimetry                      : 4:2:0\nScan type                        : Progressive\nBits/(Pixel*Frame)               : 0.150\nStream size                      : 471 MiB (84%)\nWriting library                  : XviD 1.1.2 (UTC 2006-11-01)\n\nAudio\nFormat                           : MPEG Audio\nFormat version                   : Version 1\nFormat profile                   : Layer 3\nCodec ID                         : 55\nCodec ID/Hint                    : MP3\nDuration                         : 1h 45mn\nBit rate mode                    : Constant\nBit rate                         : 112 Kbps\nChannel(s)                       : 2 channels\nSampling rate                    : 48.0 KHz\nResolution                       : 16 bits\nStream size                      : 84.9 MiB (15%)\nAlignment                        : Split accross interleaves\nInterleave, duration             : 40 ms (1.00 video frame)\nInterleave, preload duration     : 500 ms\n\n\n******************************************\n\nBrought to you by\n\nWaRlOrD\nAND\n2Lions Team\n\nmeer zien??\nKom dan eens kijken op ons forum &lt;a href=&quot;\nhttp://www.2lions.ons-forum.nl&quot; rel=&quot;nofollow&quot; target=&quot;_NEW&quot;&gt;\nhttp://www.2lions.ons-forum.nl&lt;/a&gt;\n\n******************************************\nYou need this reseed? send me a pm @ piratebay forum\n\n","torrent":{"xt":"urn:btih:032ca22ca3b2f2453b027598aca6c7e9667b4e3c","amp;dn":"Asterix_en_de_Olympische_spelen_%282008%29_%28Nl-gesproken%29-2lions%2BWaR","amp;tr":["udp%3A%2F%2Ftracker.openbittorrent.com%3A80","udp%3A%2F%2Fopen.demonii.com%3A1337","udp%3A%2F%2Ftracker.coppersurfer.tk%3A6969","udp%3A%2F%2Fexodus.desync.com%3A6969"],"infoHash":"032ca22ca3b2f2453b027598aca6c7e9667b4e3c","infoHashBuffer":{"type":"Buffer","data":[3,44,162,44,163,178,242,69,59,2,117,152,172,166,199,233,102,123,78,60]},"announce":[],"urlList":[]}}